# xmcd
#
# Track frame offsets: 
#        182
#        16455
#        35890
#        55917
#        83727
#        108797
#        134562
#        156337
#        174155
#        188722
#
# Disc length: 2922 seconds
#
# Revision: 1
# Processed by: cddbd v1.5.2PL0 Copyright (c) Steve Scherf et al.
# Submitted via: ExactAudioCopyFreeDBPlugin 1.0
#
DISCID=7e0b680a
DTITLE=Fast Johnny Ricker - Drivin' Me Blue
DYEAR=1994
DGENRE=Blues
TTITLE0=Into The Light
TTITLE1=Drivin' Me Blue
TTITLE2=Hip On Hip
TTITLE3=Snake Me
TTITLE4=Mighty High
TTITLE5=Mess Around
TTITLE6=Take Me
TTITLE7=That Train
TTITLE8=White Knuckle Shuffle
TTITLE9=Don't Go Down There
EXTD=Red Hot Records
EXTT0=
EXTT1=
EXTT2=
EXTT3=
EXTT4=
EXTT5=
EXTT6=
EXTT7=
EXTT8=
EXTT9=
PLAYORDER=
